<?xml version="1.0" encoding="utf-8"?>
<!-- Svg Vector Icons : http://www.onlinewebfonts.com/icon -->
<!DOCTYPE svg PUBLIC "-//W3C//DTD SVG 1.1//EN" "http://www.w3.org/Graphics/SVG/1.1/DTD/svg11.dtd">
<svg version="1.1" xmlns="http://www.w3.org/2000/svg" xmlns:xlink="http://www.w3.org/1999/xlink" x="0px" y="0px" viewBox="0 0 256 256" enable-background="new 0 0 256 256" xml:space="preserve">
<metadata> Svg Vector Icons : http://www.onlinewebfonts.com/icon </metadata>
<g><g><path fill="#000000" d="M181.6,10c8.4,0,16.6,1.6,24.4,4.8c7.9,3.2,14.9,7.9,21.1,14.1c6.2,6.2,10.9,13.2,14.1,21.1c3.2,7.9,4.8,16,4.8,24.4c0,8.4-1.6,16.5-4.8,24.4c-3.2,7.9-7.9,14.9-14,21.1L195,152c-0.6,0.6-1.5,1.5-2.8,2.6c-6,5.3-12.7,9.3-20,12.1s-15,4.1-22.7,4.1c-9.8,0-19-2.1-27.7-6.3c-6.5-3.1-12.5-7.3-17.8-12.6c-5.3-5.3-9.5-11.2-12.6-17.8c4.2-4.2,9.2-6.3,15.2-6.3c2.1,0,4.2,0.3,6.3,0.9c3.6,5.9,8.4,10.6,14.3,14.3c6.9,4.2,14.3,6.3,22.4,6.3c5.6,0,11-1.1,16.3-3.2s9.9-5.3,14.1-9.4l32.2-32.2c4.1-4.1,7.3-8.8,9.4-14.1c2.1-5.3,3.2-10.7,3.2-16.3c0-5.6-1.1-11-3.2-16.3s-5.3-9.9-9.4-14.1c-4.1-4.1-8.8-7.3-14.1-9.4c-5.3-2.1-10.7-3.2-16.3-3.2s-11,1.1-16.3,3.2c-5.3,2.1-9.9,5.3-14.1,9.4l-22.5,22.6c-7.2-2-14.5-2.9-22.2-2.9c-1.2,0-3,0-5.2,0.2c1.1-1.2,2-2.1,2.6-2.8l32.2-32.2c6.1-6.1,13.2-10.8,21.1-14C165.1,11.6,173.2,10,181.6,10L181.6,10z M106.6,85.1c9.8,0,19,2.1,27.7,6.3c6.5,3.1,12.5,7.3,17.8,12.6c5.3,5.3,9.5,11.2,12.6,17.8c-4.2,4.2-9.2,6.3-15.2,6.3c-2.1,0-4.2-0.3-6.3-0.9c-3.6-5.9-8.4-10.6-14.3-14.3c-6.9-4.2-14.3-6.3-22.4-6.3c-5.6,0-11,1.1-16.3,3.2c-5.3,2.1-9.9,5.3-14.1,9.4L44,151.3c-4.1,4.1-7.3,8.8-9.4,14.1c-2.1,5.3-3.2,10.7-3.2,16.3s1.1,11,3.2,16.3c2.1,5.3,5.3,9.9,9.4,14.1c4.1,4.1,8.8,7.3,14.1,9.4c5.3,2.1,10.7,3.2,16.3,3.2c5.6,0,11-1.1,16.3-3.2c5.3-2.1,9.9-5.3,14.1-9.4l22.5-22.5c7.2,1.9,14.5,2.9,22.2,2.9c1.2,0,3,0,5.2-0.2c-1.1,1.2-2,2.1-2.6,2.8l-32.2,32.2c-6.2,6.2-13.2,10.9-21.1,14.1c-7.9,3.2-16,4.8-24.4,4.8c-8.4,0-16.5-1.6-24.4-4.8c-7.9-3.2-14.9-7.9-21.1-14c-6.2-6.2-10.9-13.2-14.1-21.1s-4.8-16-4.8-24.4c0-8.4,1.6-16.6,4.8-24.4s7.9-14.9,14.1-21.1L61,104c0.6-0.6,1.5-1.5,2.8-2.6c6-5.3,12.7-9.3,20-12.1C91.2,86.5,98.8,85.1,106.6,85.1L106.6,85.1z"/></g></g>
</svg>