<?xml version="1.0" encoding="utf-8"?>
<!-- Svg Vector Icons : http://www.onlinewebfonts.com/icon -->
<!DOCTYPE svg PUBLIC "-//W3C//DTD SVG 1.1//EN" "http://www.w3.org/Graphics/SVG/1.1/DTD/svg11.dtd">
<svg version="1.1" xmlns="http://www.w3.org/2000/svg" xmlns:xlink="http://www.w3.org/1999/xlink" x="0px" y="0px" viewBox="0 0 256 256" enable-background="new 0 0 256 256" xml:space="preserve">
<metadata> Svg Vector Icons : http://www.onlinewebfonts.com/icon </metadata>
<g><g><g><path fill="#000000" d="M124.3,10.1c-3,0.9-6.2,3.6-7.7,6.4l-1.5,2.7l-0.1,25.2c-0.1,16.4,0,25.8,0.4,27c0.8,3.2,3.4,6.4,6.4,8.1c2.4,1.3,3.2,1.5,6.4,1.5c3.2,0,4-0.2,6.4-1.5c2.9-1.6,5.5-4.9,6.4-7.9c0.3-1.1,0.5-11.1,0.5-26.1s-0.2-25-0.5-26.1c-0.9-3-3.4-6.3-6.3-7.9C131.7,9.9,127.1,9.3,124.3,10.1z"/><path fill="#000000" d="M50.6,41c-4,1.2-8.3,5.4-9.3,9.1c-0.8,2.8-0.4,6.9,0.9,9.4c0.6,1.1,8.9,9.7,19.3,20.1C78.2,96.3,80,97.8,82.1,98.4c2.9,0.8,7,0.4,9.5-0.9c2.8-1.4,6.2-5.4,7-8.1c0.8-2.8,0.4-6.9-0.9-9.4c-0.6-1.1-8.8-9.7-19.3-20.1C63,44.5,59.9,41.6,58.1,41.1C55.9,40.5,52.5,40.4,50.6,41z"/><path fill="#000000" d="M198.7,41.5c-2.9,0.9-5.1,2.9-22.4,20.3c-16.7,16.8-18.2,18.5-18.8,20.6c-0.8,2.9-0.4,7,0.9,9.5c1.4,2.8,5.4,6.2,8.1,7c2.8,0.8,6.9,0.4,9.4-0.9c1.1-0.6,9.7-8.9,20.1-19.3c16.7-16.8,18.2-18.5,18.8-20.6c0.8-2.9,0.4-7-0.9-9.5c-1.3-2.6-5.3-6.2-7.8-6.9C204,41,200.6,40.9,198.7,41.5z"/><path fill="#000000" d="M19.4,115.6c-2.9,0.8-6.2,3.5-7.7,6.3c-2.2,3.9-2.2,8.8,0,12.7c1.6,2.9,4.9,5.5,7.9,6.4c2.5,0.6,49.7,0.6,52.2,0c3.1-0.9,6.3-3.4,7.9-6.4c1.3-2.4,1.5-3.2,1.5-6.4c0-3.2-0.2-4-1.5-6.4c-1.6-2.9-4.9-5.5-7.9-6.4C69.5,114.9,21.6,115,19.4,115.6z"/><path fill="#000000" d="M184.2,115.6c-2.9,0.8-6.2,3.5-7.7,6.3c-1.3,2.4-1.5,3.2-1.5,6.4c0,3.2,0.2,4,1.5,6.4c1.6,2.9,4.9,5.5,7.9,6.4c2.5,0.6,49.7,0.6,52.2,0c3.1-0.9,6.3-3.4,7.9-6.4c1.3-2.4,1.5-3.2,1.5-6.4c0-3.2-0.2-4-1.5-6.4c-1.6-2.9-4.9-5.5-7.9-6.4C234.3,114.9,186.3,115,184.2,115.6z"/><path fill="#000000" d="M82.5,157.7c-2.9,0.9-5.1,2.9-22.4,20.3c-16.7,16.8-18.2,18.5-18.8,20.6c-0.8,2.9-0.4,7,0.9,9.5c1.4,2.8,5.4,6.2,8.1,7c2.8,0.8,6.9,0.4,9.4-0.9c1.1-0.6,9.7-8.9,20.1-19.3c16.7-16.8,18.2-18.5,18.8-20.6c0.8-2.9,0.4-7-0.9-9.5c-1.3-2.6-5.3-6.2-7.8-6.9C87.8,157.2,84.4,157.1,82.5,157.7z"/><path fill="#000000" d="M166.8,157.7c-4,1.2-8.3,5.4-9.3,9.1c-0.8,2.8-0.4,6.9,0.9,9.4c0.6,1.1,8.9,9.7,19.3,20.1c16.8,16.7,18.5,18.2,20.6,18.8c2.9,0.8,7,0.4,9.5-0.9c2.8-1.4,6.2-5.4,7-8.1c0.8-2.8,0.4-6.9-0.9-9.4c-0.6-1.1-8.8-9.7-19.3-20.1c-15.4-15.3-18.6-18.2-20.3-18.7C172.1,157.2,168.7,157.1,166.8,157.7z"/><path fill="#000000" d="M124.3,175.4c-3,0.9-6.2,3.6-7.7,6.4l-1.5,2.7l-0.1,25.2c-0.1,16.4,0,25.8,0.4,27c0.8,3.2,3.4,6.4,6.4,8.1c2.4,1.3,3.2,1.5,6.4,1.5c3.2,0,4-0.2,6.4-1.5c2.9-1.6,5.5-4.9,6.4-7.9c0.3-1.1,0.5-11.1,0.5-26.1s-0.2-25-0.5-26.1c-0.9-3-3.4-6.3-6.3-7.9C131.7,175.1,127.1,174.6,124.3,175.4z"/></g></g></g>
</svg>